<?xml version="1.0" encoding="UTF-8" standalone="no"?>
<!-- Created with Inkscape (http://www.inkscape.org/) -->

<svg
   width="198.3064mm"
   height="286.90024mm"
   viewBox="0 0 198.3064 286.90024"
   version="1.1"
   id="svg1601861"
   inkscape:version="1.2.2 (b0a8486541, 2022-12-01)"
   sodipodi:docname="serv_vpr_A4_b.svg"
   xml:space="preserve"
   inkscape:export-filename="serv_vpr_text.png"
   inkscape:export-xdpi="1066.8199"
   inkscape:export-ydpi="1066.8199"
   xmlns:inkscape="http://www.inkscape.org/namespaces/inkscape"
   xmlns:sodipodi="http://sodipodi.sourceforge.net/DTD/sodipodi-0.dtd"
   xmlns:xlink="http://www.w3.org/1999/xlink"
   xmlns="http://www.w3.org/2000/svg"
   xmlns:svg="http://www.w3.org/2000/svg"><sodipodi:namedview
     id="namedview1601863"
     pagecolor="#ffffff"
     bordercolor="#000000"
     borderopacity="0.25"
     inkscape:showpageshadow="2"
     inkscape:pageopacity="0.0"
     inkscape:pagecheckerboard="0"
     inkscape:deskcolor="#d1d1d1"
     inkscape:document-units="mm"
     showgrid="false"
     inkscape:zoom="1.5749341"
     inkscape:cx="493.98893"
     inkscape:cy="679.07604"
     inkscape:window-width="1800"
     inkscape:window-height="1153"
     inkscape:window-x="0"
     inkscape:window-y="0"
     inkscape:window-maximized="1"
     inkscape:current-layer="layer1" /><defs
     id="defs1601858"><rect
       x="485.22678"
       y="832.28326"
       width="283.42508"
       height="213.95766"
       id="rect4115" /></defs><g
     inkscape:label="Layer 1"
     inkscape:groupmode="layer"
     id="layer1"
     transform="translate(-0.08854176,0.07192357)"
     style="display:inline"><image
       width="198.3064"
       height="286.90024"
       preserveAspectRatio="none"
       xlink:href="serv_vpr.png"
       id="image1606366"
       x="0.088541761"
       y="-0.071923569"
       style="display:none"
       inkscape:export-filename="./serv_vpr_text.png"
       inkscape:export-xdpi="1066.8199"
       inkscape:export-ydpi="1066.8199" /><text
       xml:space="preserve"
       transform="matrix(0.26458333,0,0,0.26458333,-4.617133,-3.8798599)"
       id="text4113"
       style="font-size:10.6667px;font-family:sans-serif;-inkscape-font-specification:sans-serif;white-space:pre;shape-inside:url(#rect4115);display:inline;fill:#000000;stroke-width:18.2"><tspan
         x="485.22656"
         y="841.72073"
         id="tspan17172"><tspan
   style="font-weight:bold;-inkscape-font-specification:'sans-serif Bold'"
   id="tspan17170">RISC-V CPU-Kern aus 74xx Logik ICs</tspan>
</tspan><tspan
         x="485.22656"
         y="855.05411"
         id="tspan17174">- basierend auf &quot;SErial RISC-V CPU&quot;
</tspan><tspan
         x="485.22656"
         y="868.38748"
         id="tspan17176">  (Olof Kindgren, ISC Lizenz)
</tspan><tspan
         x="485.22656"
         y="881.72086"
         id="tspan17178">- übertragen in Logik mit Yosys Synthese
</tspan><tspan
         x="485.22656"
         y="895.05423"
         id="tspan17180">  (Claire Wolf et al., ISC Lizenz) und der
</tspan><tspan
         x="485.22656"
         y="908.3876"
         id="tspan17182">  Logik-Bibliothek 74xx-liberty (Pepijn de Vos et al.)
</tspan><tspan
         x="485.22656"
         y="921.72098"
         id="tspan17184">- Platzierung mit &quot;Verilog to Routing&quot; (MIT Lizenz)
</tspan><tspan
         x="485.22656"
         y="935.05435"
         id="tspan17186">- Verdrahtung mit Freerouting (GPL 3 Lizenz)
</tspan><tspan
         x="485.22656"
         y="948.38773"
         id="tspan17188">- Weiteres PCB-Design und Rendering
</tspan><tspan
         x="485.22656"
         y="961.7211"
         id="tspan17190">  mit KiCad EDA (GPL 3 Lizenz)
</tspan><tspan
         x="485.22656"
         y="975.05447"
         id="tspan17192">- Grafische Umsetzung mit GIMP (GPL 3 Lizenz)
</tspan><tspan
         x="485.22656"
         y="988.38785"
         id="tspan17194">  und Inkscape (GPL 2 Lizenz)
</tspan><tspan
         x="485.22656"
         y="1001.7212"
         id="tspan17196">- Schriftart &quot;DSEG&quot; (SIL Open Font License 1.1)
</tspan><tspan
         x="485.22656"
         y="1015.0546"
         id="tspan17198">
</tspan><tspan
         x="485.22656"
         y="1028.388"
         id="tspan17200">Weitere Details:
</tspan><tspan
         x="485.22656"
         y="1041.7213"
         id="tspan17204"><tspan
           style="font-size:8.66667px"
           id="tspan17202">https://github.com/BBBSnowball/74xx/tree/hans</tspan></tspan></text><path
       style="display:none;fill:#000000;stroke-width:0.156675"
       d="m 184.2077,284.61578 h -1.64508 v -1.64508 -1.64508 h 1.64508 1.64508 v 1.64508 1.64508 z m 0,-0.47002 h 1.17506 v -1.17506 -1.17506 h -1.17506 -1.17506 v 1.17506 1.17506 z m 0,-0.47002 h -0.70504 v -0.70504 -0.70504 h 0.70504 0.70504 v 0.70504 0.70504 z m 2.35012,0.94004 h -0.23501 v -0.47002 -0.47002 h 0.47002 0.47003 v -0.23502 -0.23501 h 0.23501 0.23501 v 0.47003 0.47002 h 0.23501 0.23501 v -0.47002 -0.47003 h -0.23501 -0.23501 v -0.23501 -0.23501 h -0.23501 -0.23501 v 0.23501 0.23501 h -0.47003 -0.47002 v -0.23501 -0.23501 h 0.47002 0.47003 v -0.23501 -0.23502 h 0.23501 0.23501 v 0.23502 0.23501 h 0.23501 0.23501 v -0.23501 -0.23502 h 0.23502 0.23501 v -0.94004 -0.94005 h 0.47002 0.47003 v 0.47002 0.47003 h -0.23502 -0.23501 v 0.23501 0.23501 h 0.23501 0.23502 v 0.23501 0.23501 h -0.23502 -0.23501 v 0.23502 0.23501 h 0.23501 0.23502 v 0.23501 0.23501 h -0.47003 -0.47002 v 0.23501 0.23502 h 0.70503 0.70504 v -0.47003 -0.47002 h -0.23501 -0.23501 v -0.23501 -0.23502 h 0.23501 0.23501 v -0.47002 -0.47002 h 0.23501 0.23502 v -0.23502 -0.23501 h 0.23501 0.23501 v 0.23501 0.23502 h 0.23501 0.23501 v 0.47002 0.47002 h -0.23501 -0.23501 v 0.23502 0.23501 h -0.23501 -0.23501 v 0.23501 0.23501 h 0.23501 0.23501 v 0.70504 0.70503 h -0.23501 -0.23501 v -0.23501 -0.23501 h -0.23502 -0.23501 v 0.23501 0.23501 h -1.41007 -1.41007 v -0.23501 -0.23501 h -0.23502 -0.23501 v 0.23501 0.23501 z m 4.23022,-2.35012 h 0.23501 v -0.47002 -0.47002 h -0.23501 -0.23501 v 0.47002 0.47002 z m 2.58513,2.35012 h -1.41007 v -0.23501 -0.23501 h -0.23501 -0.23502 v -0.70504 -0.70503 h 0.23502 0.23501 v -0.70504 -0.70503 h -0.23501 -0.23502 v -0.47003 -0.47002 h 0.23502 0.23501 v -0.23501 -0.23502 h 0.23501 0.23501 v -0.23501 -0.23501 h -0.23501 -0.23501 v -1.64508 -1.64509 h -0.23501 -0.23502 v -0.47002 -0.47003 h 0.47003 0.47002 v 0.23501 0.23502 h 0.23501 0.23502 v -0.47003 -0.47002 h 0.70503 0.70504 v 0.23501 0.23501 h 0.23501 0.23501 v -0.23501 -0.23501 h 0.47003 0.47002 v 0.23501 0.23501 h 0.23501 0.23501 v 0.23501 0.23502 h -0.23501 -0.23501 v 0.47002 0.47002 h 0.23501 0.23501 v 0.23502 0.23501 h -0.47002 -0.47002 v -0.23501 -0.23502 h -0.23502 -0.23501 v -0.23501 -0.23501 h -0.23501 -0.23501 v 0.23501 0.23501 h 0.23501 0.23501 v 0.23502 0.23501 h -0.23501 -0.23501 v -0.23501 -0.23502 h -0.23501 -0.23502 v -0.47002 -0.47002 h 0.23502 0.23501 v -0.23502 -0.23501 h -0.47003 -0.47002 v 0.23501 0.23502 h -0.23501 -0.23501 v 0.23501 0.23501 h -0.23502 -0.23501 v 0.23501 0.23501 h 0.47003 0.47002 v 0.23502 0.23501 h -0.23501 -0.23501 v 0.23501 0.23501 h -0.23502 -0.23501 v 0.23502 0.23501 h 0.23501 0.23502 v -0.23501 -0.23502 h 1.64508 1.64508 v 0.23502 0.23501 h -0.23501 -0.23501 v 0.47002 0.47003 h 0.23501 0.23501 v 0.70503 0.70504 h -0.47002 -0.47002 v 0.23501 0.23501 h 0.47002 0.47002 v 0.23501 0.23502 h -0.23501 -0.23501 v 0.23501 0.23501 h 0.23501 0.23501 v 0.23501 0.23501 h -0.23501 -0.23501 v -0.23501 -0.23501 h -0.23501 -0.23501 v 0.23501 0.23501 h -0.47003 -0.47002 v 0.23502 0.23501 h 0.70503 0.70504 v 0.23501 0.23501 h 0.23501 0.23501 v 0.23501 0.23502 h -0.23501 -0.23501 v 0.47002 0.47002 h -0.23501 -0.23501 v -0.47002 -0.47002 h 0.23501 0.23501 v -0.23502 -0.23501 h -0.23501 -0.23501 v 0.23501 0.23502 h -0.47003 -0.47002 v 0.23501 0.23501 h 0.23501 0.23501 v 0.23501 0.23501 z m 0,-0.47002 h 0.47002 v -0.47002 -0.47003 h -0.47002 -0.47002 v -0.23501 -0.23501 h -0.23502 -0.23501 v 0.47002 0.47003 h 0.23501 0.23502 v 0.23501 0.23501 z m -0.23501,-1.8801 h 0.70503 v -0.70503 -0.70504 h -0.70503 -0.70504 v 0.70504 0.70503 z m 0,-0.47002 h -0.23501 v -0.23501 -0.23501 h 0.23501 0.23501 v 0.23501 0.23501 z m 1.64508,0 h 0.47003 v -0.23501 -0.23501 h -0.23502 -0.23501 v -0.47003 -0.47002 h 0.23501 0.23502 v -0.47003 -0.47002 h 0.23501 0.23501 v -0.23501 -0.23501 h -0.23501 -0.23501 v -0.47003 -0.47002 h -0.23502 -0.23501 v 0.23501 0.23501 h -0.23501 -0.23501 v -0.23501 -0.23501 h -0.47003 -0.47002 v 0.23501 0.23501 h -0.47002 -0.47003 v 0.23501 0.23502 h 0.47003 0.47002 v -0.23502 -0.23501 h 0.23501 0.23501 v 0.47003 0.47002 h 0.23502 0.23501 v -0.23501 -0.23501 h 0.23501 0.23501 v 0.23501 0.23501 h -0.23501 -0.23501 v 1.17506 1.17506 z m -1.64508,-1.41007 h 0.23501 v -0.47003 -0.47002 h -0.23501 -0.23501 v 0.47002 0.47003 z m 2.11511,-4.70024 h 0.47002 v -0.23502 -0.23501 h -0.47002 -0.47003 v 0.23501 0.23502 z m -8.69545,6.11031 h -0.23501 v -0.47002 -0.47003 h -1.17506 -1.17506 v -0.70503 -0.70504 h -0.23501 -0.23502 v -0.47002 -0.47003 h 0.23502 0.23501 v -0.23501 -0.23501 h -0.23501 -0.23502 v -0.23501 -0.23502 h -0.23501 -0.23501 v 0.23502 0.23501 h -0.23501 -0.23501 v -0.47003 -0.47002 h 0.47002 0.47002 v 0.23501 0.23501 h 0.23502 0.23501 v 0.23502 0.23501 h 0.70503 0.70504 v -0.23501 -0.23502 h -0.23501 -0.23501 v -0.23501 -0.23501 h -0.70504 -0.70504 v -0.23501 -0.23502 h 0.23502 0.23501 v -0.23501 -0.23501 h 0.23501 0.23501 v -0.23501 -0.23501 h 0.23501 0.23502 v 0.23501 0.23501 h 0.23501 0.23501 v 0.23501 0.23501 h -0.23501 -0.23501 v 0.23502 0.23501 h 0.23501 0.23501 v -0.23501 -0.23502 h 0.47002 0.47003 v 0.23502 0.23501 h 0.47002 0.47003 v 0.23501 0.23501 h 0.23501 0.23501 v -0.23501 -0.23501 h -0.23501 -0.23501 v -0.23501 -0.23502 h -0.23502 -0.23501 v -0.23501 -0.23501 h -0.23501 -0.23501 v -0.23501 -0.23501 h -0.23501 -0.23502 v 0.23501 0.23501 h -0.23501 -0.23501 v -0.23501 -0.23501 h -0.23501 -0.23501 v -0.23502 -0.23501 h 0.23501 0.23501 v -0.23501 -0.23501 h 0.47002 0.47003 v -0.94005 -0.94005 h 0.23501 0.23501 v -0.23501 -0.23501 h -0.23501 -0.23501 v -0.47003 -0.47002 h 0.47002 0.47003 v -0.23501 -0.23501 h 0.23501 0.23501 v 0.47002 0.47002 h -0.47002 -0.47003 v 0.23502 0.23501 h 0.23501 0.23502 v 0.23501 0.23501 h 0.23501 0.23501 v 0.70504 0.70503 h 0.23501 0.23501 v 0.23502 0.23501 h 0.47003 0.47002 v -0.47003 -0.47002 h -0.23501 -0.23501 v 0.23501 0.23501 h -0.23501 -0.23502 v -0.94004 -0.94005 h 0.23502 0.23501 v 0.47002 0.47003 h 0.23501 0.23501 v -0.47003 -0.47002 h 0.23501 0.23502 v 0.23501 0.23501 h 0.23501 0.23501 v 0.47003 0.47002 h -0.23501 -0.23501 v 0.23501 0.23501 h 0.23501 0.23501 v -0.23501 -0.23501 h 0.23501 0.23502 v 0.23501 0.23501 h 0.23501 0.23501 v 0.23502 0.23501 h -0.47002 -0.47003 v 0.23501 0.23501 h 0.23501 0.23502 v 0.23501 0.23502 h 0.23501 0.23501 v 0.23501 0.23501 h 0.23501 0.23501 v 0.23501 0.23501 h -0.23501 -0.23501 v 0.23502 0.23501 h 0.23501 0.23501 v 0.23501 0.23501 h -0.47002 -0.47002 v -0.47002 -0.47003 h 0.23501 0.23501 v -0.23501 -0.23501 h -0.23501 -0.23501 v -0.23501 -0.23501 h -0.23502 -0.23501 v -0.23502 -0.23501 h -0.47002 -0.47003 v 0.23501 0.23502 h -0.23501 -0.23501 v 0.23501 0.23501 h 0.23501 0.23501 v -0.23501 -0.23501 h 0.23501 0.23502 v 0.23501 0.23501 h 0.23501 0.23501 v 0.47002 0.47003 h -0.23501 -0.23501 v -0.23501 -0.23502 h -0.23502 -0.23501 v 0.23502 0.23501 h -0.23501 -0.23501 v -0.23501 -0.23502 h -0.23501 -0.23502 v 0.94005 0.94005 h 0.23502 0.23501 v -0.23501 -0.23501 h 0.23501 0.23501 v -0.23501 -0.23502 h 0.23501 0.23502 v 0.23502 0.23501 h 0.23501 0.23501 v -0.23501 -0.23502 h 0.23501 0.23502 v 0.23502 0.23501 h 0.47002 0.47002 v 0.23501 0.23501 h -0.23501 -0.23501 v 0.23501 0.23502 h -0.47002 -0.47003 v -0.23502 -0.23501 h -0.70504 -0.70503 v 0.23501 0.23502 h 0.23501 0.23501 v 0.23501 0.23501 h 0.23501 0.23502 v 0.23501 0.23501 h -0.47003 -0.47002 v 0.23502 0.23501 h -0.23501 -0.23502 v -0.23501 -0.23502 h -0.23501 -0.23501 v -0.23501 -0.23501 h 0.23501 0.23501 v -0.47002 -0.47003 h -0.23501 -0.23501 v -0.23501 -0.23501 h -0.47002 -0.47003 v -0.23501 -0.23502 h -0.23501 -0.23501 v -0.23501 -0.23501 h -0.47003 -0.47002 v 0.23501 0.23501 h 0.23501 0.23501 v 0.23502 0.23501 h 0.23502 0.23501 v 0.23501 0.23501 h 0.23501 0.23501 v 0.23501 0.23502 h 0.47003 0.47002 v 0.23501 0.23501 h -0.23501 -0.23501 v 0.47002 0.47003 h -0.23502 -0.23501 v -0.70504 -0.70503 h -0.23501 -0.23501 v 0.70503 0.70504 h 0.23501 0.23501 v 0.23501 0.23501 h 0.70504 0.70503 v 0.23501 0.23502 h -0.23501 -0.23501 v 0.23501 0.23501 h -0.23501 -0.23501 v -0.23501 -0.23501 h -0.23502 -0.23501 v 0.23501 0.23501 z m -1.8801,-1.41007 h 0.23502 v -0.47003 -0.47002 h 0.47002 0.47002 v -0.23501 -0.23501 h -0.23501 -0.23501 v -0.23502 -0.23501 h 0.23501 0.23501 v -0.23501 -0.23501 h -0.23501 -0.23501 v 0.23501 0.23501 h -0.23501 -0.23501 v 0.47003 0.47002 h -0.23502 -0.23501 v -0.47002 -0.47003 h -0.23501 -0.23501 v 0.47003 0.47002 h 0.23501 0.23501 v 0.47002 0.47003 z m 0.94005,0 h 0.23501 v -0.23501 -0.23502 h -0.23501 -0.23501 v 0.23502 0.23501 z m 1.64509,-4.23022 h 0.47002 v -0.70504 -0.70503 h -0.23501 -0.23501 v -0.70504 -0.70503 h -0.23502 -0.23501 v 0.70503 0.70504 h -0.23501 -0.23501 v 0.47002 0.47003 h 0.23501 0.23501 v 0.23501 0.23501 z m -0.23502,-0.47002 h -0.23501 v -0.23502 -0.23501 h 0.23501 0.23502 v 0.23501 0.23502 z m -1.41007,0 h 0.23501 v -0.23502 -0.23501 h -0.23501 -0.23501 v 0.23501 0.23502 z m -2.82014,5.17026 h -0.23501 v -0.23501 -0.23501 h 0.23501 0.23501 v 0.23501 0.23501 z m 7.99041,-0.47002 h -0.23501 v -0.47003 -0.47002 h 0.47002 0.47002 v 0.23501 0.23501 h -0.23501 -0.23501 v 0.23502 0.23501 z m -7.99041,-0.47003 h -0.23501 v -0.23501 -0.23501 h 0.23501 0.23501 v 0.23501 0.23501 z m 0.23501,-3.29017 h -0.47002 v -0.47002 -0.47002 h 0.23501 0.23501 v -0.23502 -0.23501 h -0.23501 -0.23501 v -0.23501 -0.23501 h 0.47002 0.47002 v 0.23501 0.23501 h 0.23502 0.23501 v -0.23501 -0.23501 h 0.23501 0.23501 v 0.47002 0.47003 h -0.47002 -0.47003 v 0.47002 0.47002 z m 8.69545,-1.88009 h -0.23502 v -0.23501 -0.23502 h -0.23501 -0.23501 v -0.23501 -0.23501 h -0.23501 -0.23501 v -0.47002 -0.47003 h 0.23501 0.23501 v -0.23501 -0.23501 h -0.23501 -0.23501 v -0.23501 -0.23502 h 0.23501 0.23501 v 0.23502 0.23501 h 0.23501 0.23501 v -0.23501 -0.23502 h 0.23502 0.23501 v 0.70504 0.70504 h 0.23501 0.23501 v 0.47002 0.47002 h -0.23501 -0.23501 v 0.23502 0.23501 z m 0,-0.47003 h 0.23501 v -0.23501 -0.23501 h -0.23501 -0.23502 v 0.23501 0.23501 z m -7.52039,0 h -1.64508 v -1.64508 -1.64508 h 1.64508 1.64508 v 1.64508 1.64508 z m 0,-0.47002 h 1.17506 v -1.17506 -1.17506 h -1.17506 -1.17506 v 1.17506 1.17506 z m 0,-0.47002 h -0.70504 v -0.70504 -0.70504 h 0.70504 0.70504 v 0.70504 0.70504 z m 10.34053,0.94004 h -1.64508 v -1.64508 -1.64508 h 1.64508 1.64508 v 1.64508 1.64508 z m 0,-0.47002 h 1.17506 v -1.17506 -1.17506 h -1.17506 -1.17506 v 1.17506 1.17506 z m 0,-0.47002 h -0.70504 v -0.70504 -0.70504 h 0.70504 0.70504 v 0.70504 0.70504 z m -4.93525,-1.41008 h -0.47003 v -0.23501 -0.23501 h -0.23501 -0.23501 v -0.23501 -0.23501 h 0.70503 0.70504 v 0.47002 0.47002 z"
       id="path7917"
       inkscape:label="qrcode main" /><path
       style="display:inline;fill:#000000;stroke-width:0.15673"
       d="m 184.18555,284.59041 h -1.64567 v -1.64567 -1.64566 h 1.64567 1.64567 v 1.64566 1.64567 z m 0,-0.47018 h 1.17548 v -1.17549 -1.17547 h -1.17548 -1.17548 v 1.17547 1.17549 z m 0,-0.4702 h -0.70529 v -0.70529 -0.70528 h 0.70529 0.70529 v 0.70528 0.70529 z m 2.35096,0.94038 h -0.2351 v -1.17547 -1.17548 h 0.2351 0.23509 v -0.23509 -0.2351 h 0.2351 0.23509 v -0.2351 -0.23509 h -0.23509 -0.2351 v 0.23509 0.2351 h -0.23509 -0.2351 v -0.47019 -0.4702 h 0.47019 0.47019 v 0.2351 0.2351 h 0.2351 0.23509 v 0.23509 0.2351 h 0.47019 0.4702 v 0.2351 0.23509 h 0.47019 0.47019 v 0.23509 0.2351 h -0.47019 -0.47019 v -0.2351 -0.23509 h -0.70529 -0.70529 v 0.23509 0.2351 h 0.47019 0.47019 v 0.23509 0.2351 h 0.2351 0.2351 v 0.2351 0.23509 h -0.2351 -0.2351 v 0.2351 0.2351 h 0.4702 0.47019 v -0.2351 -0.2351 h 0.23509 0.2351 v -0.23509 -0.2351 h 0.23509 0.2351 v 0.2351 0.23509 h 0.23509 0.2351 v 0.2351 0.2351 h 0.2351 0.23509 v -0.2351 -0.2351 h 0.2351 0.23509 v 0.2351 0.2351 h 0.2351 0.23509 v -0.2351 -0.2351 h -0.23509 -0.2351 v -0.23509 -0.2351 h -0.47019 -0.47019 v -0.47019 -0.47019 h -0.2351 -0.23509 v -0.23509 -0.2351 h -0.2351 -0.23509 v -0.2351 -0.23509 h 0.47019 0.47019 v 0.47019 0.47019 h 0.2351 0.23509 v 0.23509 0.2351 h 0.47019 0.47019 v -0.2351 -0.23509 h -0.23509 -0.2351 v -0.23509 -0.2351 h -0.23509 -0.2351 v -0.47019 -0.4702 h 0.2351 0.23509 v 0.2351 0.2351 h 0.2351 0.23509 v -0.2351 -0.2351 h -0.23509 -0.2351 v -0.23509 -0.2351 h 0.2351 0.23509 v -0.47019 -0.47019 h 0.2351 0.23509 v 0.2351 0.23509 h 0.2351 0.2351 v -0.23509 -0.2351 h -0.2351 -0.2351 v -0.47019 -0.47019 h -0.23509 -0.2351 v 0.47019 0.47019 h -0.23509 -0.2351 v 0.47019 0.47019 h -0.23509 -0.2351 v -0.23509 -0.2351 h -0.23509 -0.2351 v 0.2351 0.23509 h 0.2351 0.23509 v 0.2351 0.23509 h -0.94038 -0.94038 v 0.2351 0.2351 h -0.47019 -0.4702 v -0.2351 -0.2351 h -0.23509 -0.2351 v -0.23509 -0.2351 h -0.23509 -0.2351 v -0.23509 -0.2351 h -0.23509 -0.2351 v 0.2351 0.23509 h -0.47019 -0.47019 v 0.2351 0.23509 h -0.2351 -0.23509 v -0.23509 -0.2351 h -0.2351 -0.23509 v -0.47019 -0.47019 h 0.47019 0.47019 v 0.2351 0.23509 h -0.2351 -0.23509 v 0.2351 0.23509 h 0.23509 0.2351 v -0.23509 -0.2351 h 0.23509 0.2351 v -0.23509 -0.2351 h 0.47019 0.47019 v 0.2351 0.23509 h 0.2351 0.23509 v -0.23509 -0.2351 h 0.47019 0.4702 v -0.23509 -0.2351 h -0.2351 -0.2351 v -0.47019 -0.47019 h 0.2351 0.2351 v 0.23509 0.2351 h 0.23509 0.2351 v 0.47019 0.47019 h 0.94038 0.94038 v -0.23509 -0.2351 h 0.2351 0.23509 v -0.47019 -0.47019 h 0.2351 0.23509 v -0.47019 -0.47019 h 1.17548 1.17548 v 0.23509 0.2351 h 0.47019 0.47019 v 0.23509 0.2351 h 0.2351 0.2351 v 0.23509 0.2351 h -0.2351 -0.2351 v 0.70529 0.70528 h 0.2351 0.2351 v 0.2351 0.23509 h 0.23509 0.23509 v 0.47019 0.4702 h -0.47018 -0.4702 v 0.23509 0.2351 h -0.47019 -0.47019 v 0.47019 0.47019 h -0.94038 -0.94039 v 0.23509 0.2351 h 0.94039 0.94038 v -0.2351 -0.23509 h 0.23509 0.2351 v -0.2351 -0.23509 h 0.2351 0.23509 v 0.23509 0.2351 h 0.2351 0.2351 v -0.2351 -0.23509 h 0.23509 0.23509 v 0.47019 0.47019 h -0.23509 -0.23509 v 0.47019 0.4702 h -0.2351 -0.2351 v 0.23509 0.23509 h -0.23509 -0.2351 v -0.23509 -0.23509 h -0.2351 -0.23509 v -0.2351 -0.2351 h -0.2351 -0.23509 v 0.2351 0.2351 h 0.23509 0.2351 v 0.23509 0.23509 h -0.70528 -0.70529 v -0.23509 -0.23509 h 0.23509 0.2351 v -0.2351 -0.2351 h -0.2351 -0.23509 v 0.2351 0.2351 h -0.4702 -0.47019 v 0.23509 0.23509 h -0.23509 -0.2351 v -0.23509 -0.23509 h -0.23509 -0.2351 v 0.23509 0.23509 h -0.23509 -0.2351 v -0.23509 -0.23509 h -0.47019 -0.47019 v 0.23509 0.23509 h -0.94038 -0.94039 v -0.47018 -0.4702 h 0.2351 0.23509 v -0.23509 -0.2351 h -0.23509 -0.2351 v 0.2351 0.23509 h -0.23509 -0.2351 v 0.2351 0.2351 h -0.23509 -0.2351 v 0.23509 0.23509 z m 8.46344,-0.47018 h 0.23509 v -0.2351 -0.2351 h -0.23509 -0.2351 v 0.2351 0.2351 z m -1.88077,-1.88077 h 0.70529 v -0.70529 -0.70529 h -0.70529 -0.70529 v 0.70529 0.70529 z m 0,-0.47019 h -0.23509 v -0.2351 -0.23509 h 0.23509 0.2351 v 0.23509 0.2351 z m 1.41057,-0.94039 h 0.2351 v -0.23509 -0.2351 h 0.2351 0.23509 v -0.23509 -0.2351 h -0.23509 -0.2351 v -0.47019 -0.47019 h -0.2351 -0.23509 v -0.2351 -0.23509 h 0.47019 0.47019 v -0.2351 -0.23509 h -0.47019 -0.47019 v 0.23509 0.2351 h -0.2351 -0.23509 v 0.23509 0.2351 h 0.23509 0.2351 v 0.47019 0.47019 h -0.47019 -0.47019 v 0.2351 0.23509 h 0.47019 0.47019 v 0.2351 0.23509 z m -5.87738,-0.47019 h 0.47019 v -0.23509 -0.2351 h -0.47019 -0.4702 v 0.2351 0.23509 z m 1.17547,0 h 0.2351 v -0.23509 -0.2351 h -0.2351 -0.23509 v 0.2351 0.23509 z m 3.29134,-1.41057 h 0.2351 v -0.2351 -0.23509 h -0.2351 -0.23509 v 0.23509 0.2351 z m 0.2351,-0.94038 h 0.47019 v -0.2351 -0.23509 h -0.47019 -0.47019 v 0.23509 0.2351 z m -10.5793,2.82114 h -0.2351 v -1.41057 -1.41057 h 0.2351 0.23509 v 0.47019 0.47019 h 0.2351 0.23509 v 0.2351 0.23509 h -0.23509 -0.2351 v 0.70529 0.70528 z m 1.41057,0 h -0.2351 v -0.23509 -0.2351 h 0.2351 0.2351 v 0.2351 0.23509 z m 0,-0.94038 h -0.2351 v -0.23509 -0.2351 h 0.2351 0.2351 v 0.2351 0.23509 z m 11.75478,-0.47019 h -0.23509 v -0.23509 -0.2351 h 0.23509 0.23509 v 0.2351 0.23509 z m -11.28459,-0.47019 h -1.17548 v -0.94038 -0.94038 h 0.2351 0.23509 v -0.4702 -0.47019 h -0.23509 -0.2351 v 0.2351 0.23509 h -0.23509 -0.2351 v -0.23509 -0.2351 h -0.23509 -0.2351 v -0.70528 -0.70529 h 1.17548 1.17548 v 0.2351 0.23509 h 0.23509 0.2351 v -0.23509 -0.2351 h 1.17548 1.17547 v 0.2351 0.23509 h -0.23509 -0.2351 v 0.47019 0.47019 h 0.2351 0.23509 v -0.23509 -0.2351 h 0.47019 0.4702 v 0.2351 0.23509 h -0.2351 -0.2351 v 0.47019 0.4702 h 0.2351 0.2351 v -0.2351 -0.2351 h 0.23509 0.2351 v -0.47019 -0.47019 h 0.47019 0.47019 v 0.47019 0.47019 h -0.2351 -0.23509 v 0.2351 0.2351 h -0.47019 -0.47019 v 0.23509 0.2351 h -0.2351 -0.2351 v -0.2351 -0.23509 h -0.23509 -0.2351 v -0.2351 -0.2351 h -0.23509 -0.2351 v 0.2351 0.2351 h 0.2351 0.23509 v 0.23509 0.2351 h -0.47019 -0.47019 v -0.2351 -0.23509 h -0.23509 -0.2351 v -0.2351 -0.2351 h 0.2351 0.23509 v -0.23509 -0.2351 h -0.23509 -0.2351 v 0.2351 0.23509 h -0.2351 -0.23509 v -0.23509 -0.2351 h -0.2351 -0.23509 v 0.2351 0.23509 h 0.23509 0.2351 v 0.2351 0.2351 h 0.23509 0.2351 v 0.23509 0.2351 h 0.2351 0.23509 v 0.23509 0.2351 h 0.47019 0.47019 v 0.47019 0.47019 h -0.47019 -0.47019 v -0.47019 -0.47019 h -0.23509 -0.2351 v -0.2351 -0.23509 h -0.2351 -0.23509 v 0.23509 0.2351 h -0.2351 -0.23509 v -0.2351 -0.23509 h 0.23509 0.2351 v -0.2351 -0.23509 h -0.70529 -0.70528 v 0.47019 0.47019 h -0.2351 -0.2351 v 0.23509 0.2351 h 0.2351 0.2351 v -0.2351 -0.23509 h 0.23509 0.2351 v 0.23509 0.2351 h 0.47019 0.47019 v 0.23509 0.2351 z m 0,-2.35096 h 0.2351 v -0.23509 -0.2351 h -0.2351 -0.23509 v 0.2351 0.23509 z m -1.41057,-0.47019 h 0.23509 v -0.47019 -0.47019 h -0.23509 -0.2351 v 0.47019 0.47019 z m 1.17548,-0.47019 h 0.47019 v -0.23509 -0.2351 h -0.47019 -0.4702 v 0.2351 0.23509 z m 1.64566,0 h 0.70529 v -0.23509 -0.2351 h -0.70529 -0.70528 v 0.2351 0.23509 z m 4.23172,3.29134 h -0.70528 v -0.2351 -0.23509 h -0.2351 -0.23509 v -0.47019 -0.47019 h 0.47019 0.47019 v 0.23509 0.2351 h 0.23509 0.2351 v 0.23509 0.2351 h 0.2351 0.23509 v 0.23509 0.2351 z m 0.4702,-0.94038 h -0.2351 v -0.2351 -0.23509 h -0.2351 -0.23509 v -0.47019 -0.4702 h 0.47019 0.47019 v 0.2351 0.2351 h -0.23509 -0.2351 v 0.23509 0.2351 h 0.2351 0.23509 v 0.23509 0.2351 z m -7.99325,-0.47019 h -0.2351 v -0.2351 -0.23509 h 0.2351 0.23509 v 0.23509 0.2351 z m 13.16535,0 h -0.23509 v -0.2351 -0.23509 h 0.23509 0.23509 v 0.23509 0.2351 z m -1.17548,-0.47019 h -0.47019 v -0.4702 -0.47019 h -0.2351 -0.23509 v -0.23509 -0.2351 h -0.47019 -0.47019 v -0.23509 -0.2351 h -0.2351 -0.2351 v 0.2351 0.23509 h -0.23509 -0.2351 v -0.23509 -0.2351 h 0.2351 0.23509 v -0.23509 -0.2351 h 0.2351 0.2351 v 0.2351 0.23509 h 0.23509 0.2351 v -0.23509 -0.2351 h 0.2351 0.23509 v 0.2351 0.23509 h 0.23509 0.2351 v -0.23509 -0.2351 h 0.23509 0.2351 v 0.2351 0.23509 h -0.2351 -0.23509 v 0.47019 0.47019 h 0.23509 0.2351 v 0.2351 0.23509 h 0.2351 0.23509 v -0.23509 -0.2351 h 0.2351 0.2351 v 0.2351 0.23509 h -0.2351 -0.2351 v 0.2351 0.2351 z m -3.05624,-0.4702 h -0.2351 v -0.23509 -0.2351 h 0.2351 0.23509 v 0.2351 0.23509 z m -0.94038,-0.47019 h -0.2351 v -0.23509 -0.2351 h -0.2351 -0.23509 v -0.47019 -0.47019 h -0.2351 -0.23509 v 0.2351 0.23509 h -0.70529 -0.70529 v -0.70529 -0.70528 h 0.2351 0.2351 v -0.2351 -0.23509 h -0.2351 -0.2351 v -0.2351 -0.23509 h -0.23509 -0.2351 v -0.2351 -0.2351 h -0.23509 -0.2351 v 0.2351 0.2351 h -0.47019 -0.47019 v -0.2351 -0.2351 h 0.2351 0.23509 v -0.23509 -0.2351 h -0.23509 -0.2351 v -0.23509 -0.2351 h 0.2351 0.23509 v -0.23509 -0.2351 h 0.2351 0.23509 v 0.47019 0.47019 h 0.2351 0.23509 v -0.23509 -0.2351 h 0.47019 0.4702 v 0.2351 0.23509 h -0.2351 -0.2351 v 0.47019 0.4702 h 0.2351 0.2351 v -0.2351 -0.2351 h 0.47019 0.47019 v 0.4702 0.47019 h 0.23509 0.2351 v 0.23509 0.2351 h 0.23509 0.2351 v -0.70529 -0.70529 h -0.2351 -0.23509 v -0.23509 -0.2351 h -0.47019 -0.47019 v -0.47019 -0.47019 h 0.23509 0.2351 v 0.2351 0.23509 h 0.23509 0.2351 v -0.23509 -0.2351 h 0.23509 0.2351 v 0.2351 0.23509 h 0.47019 0.47019 v 0.2351 0.23509 h 0.2351 0.23509 v 0.2351 0.23509 h -0.23509 -0.2351 v -0.23509 -0.2351 h -0.47019 -0.47019 v 0.2351 0.23509 h 0.2351 0.23509 v 0.2351 0.2351 h 0.2351 0.23509 v 0.23509 0.2351 h -0.23509 -0.2351 v 0.23509 0.2351 h 0.2351 0.23509 v 0.23509 0.2351 h 0.2351 0.23509 v -0.2351 -0.23509 h 0.2351 0.23509 v 0.23509 0.2351 h -0.23509 -0.2351 v 0.23509 0.2351 h -0.47019 -0.47019 v -0.47019 -0.47019 h -0.23509 -0.2351 v 0.23509 0.2351 h -0.2351 -0.23509 v 0.23509 0.2351 h 0.47019 0.47019 v 0.2351 0.23509 h 0.2351 0.23509 v 0.2351 0.23509 h -0.23509 -0.2351 v 0.2351 0.23509 z m -1.64567,-1.41057 h 0.47019 v -0.2351 -0.23509 h 0.23509 0.2351 v -0.2351 -0.23509 h -0.2351 -0.23509 v -0.2351 -0.23509 h -0.2351 -0.23509 v -0.2351 -0.23509 h -0.2351 -0.23509 v 0.23509 0.2351 h 0.23509 0.2351 v 0.23509 0.2351 h -0.2351 -0.23509 v 0.47019 0.47019 z m 0.23509,-0.47019 h -0.23509 v -0.2351 -0.23509 h 0.23509 0.2351 v 0.23509 0.2351 z m 6.58268,1.41057 h -0.23509 v -0.23509 -0.2351 h -0.2351 -0.2351 v -0.23509 -0.2351 h 0.2351 0.2351 v 0.2351 0.23509 h 0.23509 0.23509 v 0.2351 0.23509 z m -11.75478,-1.41057 h -1.64567 v -1.64567 -1.64567 h 1.64567 1.64567 v 1.64567 1.64567 z m 0,-0.47019 h 1.17548 v -1.17548 -1.17548 h -1.17548 -1.17548 v 1.17548 1.17548 z m 0,-0.47019 h -0.70529 v -0.70529 -0.70529 h 0.70529 0.70529 v 0.70529 0.70529 z m 2.35096,0.94038 h -0.2351 v -0.47019 -0.47019 h 0.2351 0.23509 v 0.47019 0.47019 z m 0.94038,0 h -0.2351 v -0.70529 -0.70528 h 0.2351 0.23509 v 0.70528 0.70529 z m 7.05286,0 h -1.64566 v -1.64567 -1.64567 h 1.64566 1.64567 v 1.64567 1.64567 z m 0,-0.47019 h 1.17549 v -1.17548 -1.17548 h -1.17549 -1.17547 v 1.17548 1.17548 z m 0,-0.47019 h -0.70528 v -0.70529 -0.70529 h 0.70528 0.70529 v 0.70529 0.70529 z m -2.35095,0 h -0.2351 v -0.2351 -0.23509 h 0.2351 0.23509 v 0.23509 0.2351 z m 0,-1.88077 h -0.2351 v -0.23509 -0.2351 h 0.2351 0.23509 v 0.2351 0.23509 z"
       id="path17122"
       inkscape:label="qrcode branch" /></g><g
     inkscape:groupmode="layer"
     id="layer2"
     inkscape:label="Layer 2"
     style="display:none"
     transform="translate(-0.08854176,0.07192357)"><path
       style="fill:none;stroke:#000000;stroke-width:0.315;stroke-dasharray:none"
       d="m 57.617653,110.44243 c 2.720624,3.88845 6.981439,7.08943 17.125085,7.12267 7.648147,0.0251 12.092087,-12.45328 17.99079,-6.45291 7.317522,7.44364 3.295353,16.69207 0.649005,20.79368 -4.336177,6.7207 -11.505939,10.6006 -14.569123,17.2307 -3.529302,7.63899 0.318948,16.11173 -3.414019,23.41046"
       id="path8103"
       sodipodi:nodetypes="cssssc" /><text
       xml:space="preserve"
       style="font-style:normal;font-variant:normal;font-weight:bold;font-stretch:normal;font-size:2.82223px;font-family:sans-serif;-inkscape-font-specification:'sans-serif Bold';fill:none;stroke:#000000;stroke-width:0.315;stroke-dasharray:none"
       id="text10334"><textPath
         xlink:href="#path8103"
         id="textPath10336"
         style="font-style:normal;font-variant:normal;font-weight:bold;font-stretch:normal;font-family:'DSEG14 Modern';-inkscape-font-specification:'DSEG14 Modern Bold';fill:#da0000;fill-opacity:1;stroke:none;stroke-width:0.315">Herzlichen  Glueckwunsch  und  alles  Gute!</textPath></text></g><g
     inkscape:groupmode="layer"
     id="layer3"
     inkscape:label="Layer 3"
     transform="translate(-0.08854176,0.07192357)" /><text
     xml:space="preserve"
     style="font-style:normal;font-variant:normal;font-weight:bold;font-stretch:normal;font-size:5.46806px;font-family:sans-serif;-inkscape-font-specification:'sans-serif Bold';fill:#c40000;fill-opacity:1;stroke:#000000;stroke-width:0.315;stroke-dasharray:none"
     id="text10334-5"
     x="50.042259"
     y="110.17233"><tspan
       style="font-style:normal;font-variant:normal;font-weight:bold;font-stretch:normal;font-size:5.46806px;font-family:'DSEG14 Modern';-inkscape-font-specification:'DSEG14 Modern Bold';fill:#c40000;fill-opacity:1;stroke:none"
       id="tspan1824">Herzlichen</tspan></text><text
     xml:space="preserve"
     style="font-style:normal;font-variant:normal;font-weight:bold;font-stretch:normal;font-size:5.46806px;font-family:sans-serif;-inkscape-font-specification:'sans-serif Bold';fill:#c40000;fill-opacity:1;stroke:#000000;stroke-width:0.315;stroke-dasharray:none"
     id="text1828"
     x="-122.62125"
     y="130.16045"
     transform="rotate(-66.289839)"><tspan
       style="font-style:normal;font-variant:normal;font-weight:bold;font-stretch:normal;font-size:5.46806px;font-family:'DSEG14 Modern';-inkscape-font-specification:'DSEG14 Modern Bold';fill:#c40000;fill-opacity:1;stroke:none"
       id="tspan1826">Glueckwunsch</tspan></text><text
     xml:space="preserve"
     style="font-style:normal;font-variant:normal;font-weight:bold;font-stretch:normal;font-size:2.82222px;font-family:sans-serif;-inkscape-font-specification:'sans-serif Bold';text-align:center;text-anchor:middle;fill:#c40000;fill-opacity:1;stroke:#000000;stroke-width:0.315;stroke-dasharray:none"
     id="text1832"
     x="128.24129"
     y="163.0788"><tspan
       sodipodi:role="line"
       x="128.24129"
       y="163.0788"
       style="font-style:normal;font-variant:normal;font-weight:bold;font-stretch:normal;font-size:2.82222px;font-family:'DSEG14 Modern';-inkscape-font-specification:'DSEG14 Modern Bold';text-align:center;text-anchor:middle;fill:#c40000;fill-opacity:1;stroke:none"
       id="tspan1848">Benjamin</tspan><tspan
       sodipodi:role="line"
       x="128.24129"
       y="167.28456"
       style="font-style:normal;font-variant:normal;font-weight:bold;font-stretch:normal;font-size:2.82222px;font-family:'DSEG14 Modern';-inkscape-font-specification:'DSEG14 Modern Bold';text-align:center;text-anchor:middle;fill:#c40000;fill-opacity:1;stroke:none"
       id="tspan1852">Koch</tspan></text><text
     xml:space="preserve"
     style="font-style:normal;font-variant:normal;font-weight:bold;font-stretch:normal;font-size:3.88056px;line-height:0.8;font-family:sans-serif;-inkscape-font-specification:'sans-serif Bold';text-align:center;text-anchor:middle;fill:#c40000;fill-opacity:1;stroke:#000000;stroke-width:0.315;stroke-dasharray:none"
     id="text2826"
     x="189.99997"
     y="-7.8355398"
     transform="rotate(55.386702)"><tspan
       sodipodi:role="line"
       id="tspan9437"
       x="189.99997"
       y="-7.8355398"><tspan
         style="font-style:normal;font-variant:normal;font-weight:bold;font-stretch:normal;font-size:3.88056px;font-family:'DSEG7 Modern';-inkscape-font-specification:'DSEG7 Modern Bold';text-align:center;text-anchor:middle;fill:#c40000;fill-opacity:1;stroke:none"
         id="tspan2824">54−19</tspan></tspan><tspan
       sodipodi:role="line"
       id="tspan9439"
       x="189.99997"
       y="-3.7988477"><tspan
         style="font-style:normal;font-variant:normal;font-weight:bold;font-stretch:normal;font-size:3.88056px;font-family:'DSEG7 Modern';-inkscape-font-specification:'DSEG7 Modern Bold';text-align:center;text-anchor:middle;fill:#c40000;fill-opacity:1;stroke:none"
         id="tspan9441">+7</tspan></tspan></text><text
     xml:space="preserve"
     style="font-style:normal;font-variant:normal;font-weight:bold;font-stretch:normal;font-size:3.88056px;font-family:sans-serif;-inkscape-font-specification:'sans-serif Bold';fill:#c40000;fill-opacity:1;stroke:#000000;stroke-width:0.315;stroke-dasharray:none"
     id="text4329"
     x="-76.235909"
     y="187.17143"
     transform="rotate(-66.921408)"><tspan
       style="font-style:normal;font-variant:normal;font-weight:bold;font-stretch:normal;font-size:3.88056px;font-family:'DSEG7 Modern';-inkscape-font-specification:'DSEG7 Modern Bold';fill:#c40000;fill-opacity:1;stroke:none"
       id="tspan4327">80/2+2</tspan></text><text
     xml:space="preserve"
     style="font-style:normal;font-variant:normal;font-weight:bold;font-stretch:normal;font-size:3.52778px;font-family:sans-serif;-inkscape-font-specification:'sans-serif Bold';fill:#c40000;fill-opacity:1;stroke:#000000;stroke-width:0.315;stroke-dasharray:none"
     id="text5059"
     x="169.01778"
     y="-30.923933"
     transform="rotate(49.336482)"><tspan
       sodipodi:role="line"
       id="tspan6518"
       x="169.01778"
       y="-30.923933"
       style="font-style:normal;font-variant:normal;font-weight:bold;font-stretch:normal;font-size:3.52778px;font-family:'DSEG7 Modern';-inkscape-font-specification:'DSEG7 Modern Bold';fill:#c40000;fill-opacity:1;stroke:none">1954/42</tspan><tspan
       sodipodi:role="line"
       id="tspan6520"
       x="169.01778"
       y="-25.666714"
       style="font-style:normal;font-variant:normal;font-weight:bold;font-stretch:normal;font-size:3.52778px;font-family:'DSEG7 Modern';-inkscape-font-specification:'DSEG7 Modern Bold';fill:#c40000;fill-opacity:1;stroke:none">−190/42</tspan></text><text
     xml:space="preserve"
     style="font-style:normal;font-variant:normal;font-weight:bold;font-stretch:normal;font-size:3.88056px;font-family:sans-serif;-inkscape-font-specification:'sans-serif Bold';fill:#c40000;fill-opacity:1;stroke:#000000;stroke-width:0.315;stroke-dasharray:none"
     id="text5789"
     transform="rotate(2.1225404,111.77111,127.73902)"><textPath
       xlink:href="#path10313"
       id="textPath10364"><tspan
         style="font-style:normal;font-variant:normal;font-weight:bold;font-stretch:normal;font-size:3.88056px;font-family:'DSEG7 Modern';-inkscape-font-specification:'DSEG7 Modern Bold';fill:#c40000;fill-opacity:1;stroke:none"
         id="tspan5787">19−80+103</tspan></textPath></text><text
     xml:space="preserve"
     style="font-style:normal;font-variant:normal;font-weight:bold;font-stretch:normal;font-size:3.88056px;font-family:sans-serif;-inkscape-font-specification:'sans-serif Bold';fill:#c40000;fill-opacity:1;stroke:#000000;stroke-width:0.315;stroke-dasharray:none"
     id="text7978"
     transform="translate(-0.08854176,-0.4572431)"><textPath
       xlink:href="#path10421"
       id="textPath10423"><tspan
         style="font-style:normal;font-variant:normal;font-weight:bold;font-stretch:normal;font-size:3.88056px;font-family:'DSEG7 Modern';-inkscape-font-specification:'DSEG7 Modern Bold';fill:#c40000;fill-opacity:1;stroke:none"
         id="tspan7976">23×2−4</tspan></textPath></text><text
     xml:space="preserve"
     style="font-style:normal;font-variant:normal;font-weight:bold;font-stretch:normal;font-size:3.88056px;font-family:sans-serif;-inkscape-font-specification:'sans-serif Bold';fill:#c40000;fill-opacity:1;stroke:#000000;stroke-width:0.315;stroke-dasharray:none"
     id="text8708"
     x="-17.626322"
     y="171.31436"
     transform="rotate(-45.352101)"><tspan
       style="font-style:normal;font-variant:normal;font-weight:bold;font-stretch:normal;font-size:3.88056px;font-family:'DSEG7 Modern';-inkscape-font-specification:'DSEG7 Modern Bold';fill:#c40000;fill-opacity:1;stroke:none"
       id="tspan8706">21*2</tspan></text><text
     xml:space="preserve"
     style="font-style:normal;font-variant:normal;font-weight:bold;font-stretch:normal;font-size:3.88056px;font-family:sans-serif;-inkscape-font-specification:'sans-serif Bold';fill:#c40000;fill-opacity:1;stroke:#000000;stroke-width:0.315;stroke-dasharray:none"
     id="text9445"
     x="57.839169"
     y="168.5047"
     transform="rotate(-18.415898)"><tspan
       style="font-style:normal;font-variant:normal;font-weight:bold;font-stretch:normal;font-size:3.88056px;font-family:'DSEG7 Modern';-inkscape-font-specification:'DSEG7 Modern Bold';fill:#c40000;fill-opacity:1;stroke:none"
       id="tspan9443">7*6</tspan></text><path
     style="fill:none;fill-opacity:1;stroke:none;stroke-width:0.315"
     d="m 111.2315,122.15719 c 3.87072,-7.79319 11.69265,-16.02721 21.3481,-15.32753"
     id="path10313"
     sodipodi:nodetypes="cc" /><path
     style="fill:none;fill-opacity:1;stroke:none;stroke-width:0.315"
     d="m 136.40297,159.30402 c 5.5788,-3.88504 9.5017,-8.12718 12.11108,-14.04265"
     id="path10421"
     sodipodi:nodetypes="cc" /></svg>
