<?xml version="1.0" encoding="UTF-8" standalone="no"?>
<!-- Created with Inkscape (http://www.inkscape.org/) -->

<svg
   width="210mm"
   height="297mm"
   viewBox="0 0 210 297"
   version="1.1"
   id="svg1601861"
   inkscape:version="1.2.2 (b0a8486541, 2022-12-01)"
   sodipodi:docname="serv_vpr_A4.svg"
   xml:space="preserve"
   inkscape:export-filename="serv_vpr_A4.png"
   inkscape:export-xdpi="200"
   inkscape:export-ydpi="200"
   xmlns:inkscape="http://www.inkscape.org/namespaces/inkscape"
   xmlns:sodipodi="http://sodipodi.sourceforge.net/DTD/sodipodi-0.dtd"
   xmlns:xlink="http://www.w3.org/1999/xlink"
   xmlns="http://www.w3.org/2000/svg"
   xmlns:svg="http://www.w3.org/2000/svg"><sodipodi:namedview
     id="namedview1601863"
     pagecolor="#ffffff"
     bordercolor="#000000"
     borderopacity="0.25"
     inkscape:showpageshadow="2"
     inkscape:pageopacity="0.0"
     inkscape:pagecheckerboard="0"
     inkscape:deskcolor="#d1d1d1"
     inkscape:document-units="mm"
     showgrid="false"
     inkscape:zoom="1.0640642"
     inkscape:cx="272.53994"
     inkscape:cy="617.91384"
     inkscape:window-width="1800"
     inkscape:window-height="1153"
     inkscape:window-x="0"
     inkscape:window-y="0"
     inkscape:window-maximized="1"
     inkscape:current-layer="layer1" /><defs
     id="defs1601858"><rect
       x="485.22677"
       y="832.28329"
       width="283.42507"
       height="213.95766"
       id="rect4115" /></defs><g
     inkscape:label="Layer 1"
     inkscape:groupmode="layer"
     id="layer1"><image
       width="198.3064"
       height="286.90024"
       preserveAspectRatio="none"
       xlink:href="serv_vpr.png"
       id="image1606366"
       x="6.2931747"
       y="4.8662696" /><text
       xml:space="preserve"
       transform="matrix(0.26458333,0,0,0.26458333,1.5875,1.0583333)"
       id="text4113"
       style="font-size:10.6667px;font-family:sans-serif;-inkscape-font-specification:sans-serif;white-space:pre;shape-inside:url(#rect4115);display:none;fill:#000000;stroke-width:18.2" /><path
       style="display:none;fill:#000000;stroke-width:0.156675"
       d="m 190.41233,289.55397 h -1.64508 v -1.64508 -1.64508 h 1.64508 1.64508 v 1.64508 1.64508 z m 0,-0.47002 h 1.17506 v -1.17506 -1.17506 h -1.17506 -1.17506 v 1.17506 1.17506 z m 0,-0.47002 h -0.70504 v -0.70504 -0.70504 h 0.70504 0.70504 v 0.70504 0.70504 z m 2.35012,0.94004 h -0.23501 v -0.47002 -0.47002 h 0.47002 0.47003 v -0.23502 -0.23501 h 0.23501 0.23501 v 0.47003 0.47002 h 0.23501 0.23501 v -0.47002 -0.47003 h -0.23501 -0.23501 v -0.23501 -0.23501 h -0.23501 -0.23501 v 0.23501 0.23501 h -0.47003 -0.47002 v -0.23501 -0.23501 h 0.47002 0.47003 v -0.23501 -0.23502 h 0.23501 0.23501 v 0.23502 0.23501 h 0.23501 0.23501 v -0.23501 -0.23502 h 0.23502 0.23501 v -0.94004 -0.94005 h 0.47002 0.47003 v 0.47002 0.47003 h -0.23502 -0.23501 v 0.23501 0.23501 h 0.23501 0.23502 v 0.23501 0.23501 h -0.23502 -0.23501 v 0.23502 0.23501 h 0.23501 0.23502 v 0.23501 0.23501 h -0.47003 -0.47002 v 0.23501 0.23502 h 0.70503 0.70504 v -0.47003 -0.47002 h -0.23501 -0.23501 v -0.23501 -0.23502 h 0.23501 0.23501 v -0.47002 -0.47002 h 0.23501 0.23502 v -0.23502 -0.23501 h 0.23501 0.23501 v 0.23501 0.23502 h 0.23501 0.23501 v 0.47002 0.47002 h -0.23501 -0.23501 v 0.23502 0.23501 h -0.23501 -0.23501 v 0.23501 0.23501 h 0.23501 0.23501 v 0.70504 0.70503 h -0.23501 -0.23501 v -0.23501 -0.23501 h -0.23502 -0.23501 v 0.23501 0.23501 h -1.41007 -1.41007 v -0.23501 -0.23501 h -0.23502 -0.23501 v 0.23501 0.23501 z m 4.23022,-2.35012 h 0.23501 v -0.47002 -0.47002 h -0.23501 -0.23501 v 0.47002 0.47002 z m 2.58513,2.35012 h -1.41007 v -0.23501 -0.23501 h -0.23501 -0.23502 v -0.70504 -0.70503 h 0.23502 0.23501 v -0.70504 -0.70503 h -0.23501 -0.23502 v -0.47003 -0.47002 h 0.23502 0.23501 v -0.23501 -0.23502 h 0.23501 0.23501 v -0.23501 -0.23501 h -0.23501 -0.23501 v -1.64508 -1.64509 h -0.23501 -0.23502 v -0.47002 -0.47003 h 0.47003 0.47002 v 0.23501 0.23502 h 0.23501 0.23502 v -0.47003 -0.47002 h 0.70503 0.70504 v 0.23501 0.23501 h 0.23501 0.23501 v -0.23501 -0.23501 h 0.47003 0.47002 v 0.23501 0.23501 h 0.23501 0.23501 v 0.23501 0.23502 h -0.23501 -0.23501 v 0.47002 0.47002 h 0.23501 0.23501 v 0.23502 0.23501 h -0.47002 -0.47002 v -0.23501 -0.23502 h -0.23502 -0.23501 v -0.23501 -0.23501 h -0.23501 -0.23501 v 0.23501 0.23501 h 0.23501 0.23501 v 0.23502 0.23501 h -0.23501 -0.23501 v -0.23501 -0.23502 h -0.23501 -0.23502 v -0.47002 -0.47002 h 0.23502 0.23501 v -0.23502 -0.23501 h -0.47003 -0.47002 v 0.23501 0.23502 h -0.23501 -0.23501 v 0.23501 0.23501 h -0.23502 -0.23501 v 0.23501 0.23501 h 0.47003 0.47002 v 0.23502 0.23501 h -0.23501 -0.23501 v 0.23501 0.23501 h -0.23502 -0.23501 v 0.23502 0.23501 h 0.23501 0.23502 v -0.23501 -0.23502 h 1.64508 1.64508 v 0.23502 0.23501 h -0.23501 -0.23501 v 0.47002 0.47003 h 0.23501 0.23501 v 0.70503 0.70504 h -0.47002 -0.47002 v 0.23501 0.23501 h 0.47002 0.47002 v 0.23501 0.23502 h -0.23501 -0.23501 v 0.23501 0.23501 h 0.23501 0.23501 v 0.23501 0.23501 h -0.23501 -0.23501 v -0.23501 -0.23501 h -0.23501 -0.23501 v 0.23501 0.23501 h -0.47003 -0.47002 v 0.23502 0.23501 h 0.70503 0.70504 v 0.23501 0.23501 h 0.23501 0.23501 v 0.23501 0.23502 h -0.23501 -0.23501 v 0.47002 0.47002 h -0.23501 -0.23501 v -0.47002 -0.47002 h 0.23501 0.23501 v -0.23502 -0.23501 h -0.23501 -0.23501 v 0.23501 0.23502 h -0.47003 -0.47002 v 0.23501 0.23501 h 0.23501 0.23501 v 0.23501 0.23501 z m 0,-0.47002 h 0.47002 v -0.47002 -0.47003 h -0.47002 -0.47002 v -0.23501 -0.23501 h -0.23502 -0.23501 v 0.47002 0.47003 h 0.23501 0.23502 v 0.23501 0.23501 z m -0.23501,-1.8801 h 0.70503 v -0.70503 -0.70504 h -0.70503 -0.70504 v 0.70504 0.70503 z m 0,-0.47002 h -0.23501 v -0.23501 -0.23501 h 0.23501 0.23501 v 0.23501 0.23501 z m 1.64508,0 h 0.47003 v -0.23501 -0.23501 h -0.23502 -0.23501 v -0.47003 -0.47002 h 0.23501 0.23502 v -0.47003 -0.47002 h 0.23501 0.23501 v -0.23501 -0.23501 h -0.23501 -0.23501 v -0.47003 -0.47002 h -0.23502 -0.23501 v 0.23501 0.23501 h -0.23501 -0.23501 v -0.23501 -0.23501 h -0.47003 -0.47002 v 0.23501 0.23501 h -0.47002 -0.47003 v 0.23501 0.23502 h 0.47003 0.47002 v -0.23502 -0.23501 h 0.23501 0.23501 v 0.47003 0.47002 h 0.23502 0.23501 v -0.23501 -0.23501 h 0.23501 0.23501 v 0.23501 0.23501 h -0.23501 -0.23501 v 1.17506 1.17506 z m -1.64508,-1.41007 h 0.23501 v -0.47003 -0.47002 h -0.23501 -0.23501 v 0.47002 0.47003 z m 2.11511,-4.70024 h 0.47002 v -0.23502 -0.23501 h -0.47002 -0.47003 v 0.23501 0.23502 z m -8.69545,6.11031 h -0.23501 v -0.47002 -0.47003 h -1.17506 -1.17506 v -0.70503 -0.70504 h -0.23501 -0.23502 v -0.47002 -0.47003 h 0.23502 0.23501 v -0.23501 -0.23501 h -0.23501 -0.23502 v -0.23501 -0.23502 h -0.23501 -0.23501 v 0.23502 0.23501 h -0.23501 -0.23501 v -0.47003 -0.47002 h 0.47002 0.47002 v 0.23501 0.23501 h 0.23502 0.23501 v 0.23502 0.23501 h 0.70503 0.70504 v -0.23501 -0.23502 h -0.23501 -0.23501 v -0.23501 -0.23501 h -0.70504 -0.70504 v -0.23501 -0.23502 h 0.23502 0.23501 v -0.23501 -0.23501 h 0.23501 0.23501 v -0.23501 -0.23501 h 0.23501 0.23502 v 0.23501 0.23501 h 0.23501 0.23501 v 0.23501 0.23501 h -0.23501 -0.23501 v 0.23502 0.23501 h 0.23501 0.23501 v -0.23501 -0.23502 h 0.47002 0.47003 v 0.23502 0.23501 h 0.47002 0.47003 v 0.23501 0.23501 h 0.23501 0.23501 v -0.23501 -0.23501 h -0.23501 -0.23501 v -0.23501 -0.23502 h -0.23502 -0.23501 v -0.23501 -0.23501 h -0.23501 -0.23501 v -0.23501 -0.23501 h -0.23501 -0.23502 v 0.23501 0.23501 h -0.23501 -0.23501 v -0.23501 -0.23501 h -0.23501 -0.23501 v -0.23502 -0.23501 h 0.23501 0.23501 v -0.23501 -0.23501 h 0.47002 0.47003 v -0.94005 -0.94005 h 0.23501 0.23501 v -0.23501 -0.23501 h -0.23501 -0.23501 v -0.47003 -0.47002 h 0.47002 0.47003 v -0.23501 -0.23501 h 0.23501 0.23501 v 0.47002 0.47002 h -0.47002 -0.47003 v 0.23502 0.23501 h 0.23501 0.23502 v 0.23501 0.23501 h 0.23501 0.23501 v 0.70504 0.70503 h 0.23501 0.23501 v 0.23502 0.23501 h 0.47003 0.47002 v -0.47003 -0.47002 h -0.23501 -0.23501 v 0.23501 0.23501 h -0.23501 -0.23502 v -0.94004 -0.94005 h 0.23502 0.23501 v 0.47002 0.47003 h 0.23501 0.23501 v -0.47003 -0.47002 h 0.23501 0.23502 v 0.23501 0.23501 h 0.23501 0.23501 v 0.47003 0.47002 h -0.23501 -0.23501 v 0.23501 0.23501 h 0.23501 0.23501 v -0.23501 -0.23501 h 0.23501 0.23502 v 0.23501 0.23501 h 0.23501 0.23501 v 0.23502 0.23501 h -0.47002 -0.47003 v 0.23501 0.23501 h 0.23501 0.23502 v 0.23501 0.23502 h 0.23501 0.23501 v 0.23501 0.23501 h 0.23501 0.23501 v 0.23501 0.23501 h -0.23501 -0.23501 v 0.23502 0.23501 h 0.23501 0.23501 v 0.23501 0.23501 h -0.47002 -0.47002 v -0.47002 -0.47003 h 0.23501 0.23501 v -0.23501 -0.23501 h -0.23501 -0.23501 v -0.23501 -0.23501 h -0.23502 -0.23501 v -0.23502 -0.23501 h -0.47002 -0.47003 v 0.23501 0.23502 h -0.23501 -0.23501 v 0.23501 0.23501 h 0.23501 0.23501 v -0.23501 -0.23501 h 0.23501 0.23502 v 0.23501 0.23501 h 0.23501 0.23501 v 0.47002 0.47003 h -0.23501 -0.23501 v -0.23501 -0.23502 h -0.23502 -0.23501 v 0.23502 0.23501 h -0.23501 -0.23501 v -0.23501 -0.23502 h -0.23501 -0.23502 v 0.94005 0.94005 h 0.23502 0.23501 v -0.23501 -0.23501 h 0.23501 0.23501 v -0.23501 -0.23502 h 0.23501 0.23502 v 0.23502 0.23501 h 0.23501 0.23501 v -0.23501 -0.23502 h 0.23501 0.23502 v 0.23502 0.23501 h 0.47002 0.47002 v 0.23501 0.23501 h -0.23501 -0.23501 v 0.23501 0.23502 h -0.47002 -0.47003 v -0.23502 -0.23501 h -0.70504 -0.70503 v 0.23501 0.23502 h 0.23501 0.23501 v 0.23501 0.23501 h 0.23501 0.23502 v 0.23501 0.23501 h -0.47003 -0.47002 v 0.23502 0.23501 h -0.23501 -0.23502 v -0.23501 -0.23502 h -0.23501 -0.23501 v -0.23501 -0.23501 h 0.23501 0.23501 v -0.47002 -0.47003 h -0.23501 -0.23501 v -0.23501 -0.23501 h -0.47002 -0.47003 v -0.23501 -0.23502 h -0.23501 -0.23501 v -0.23501 -0.23501 h -0.47003 -0.47002 v 0.23501 0.23501 h 0.23501 0.23501 v 0.23502 0.23501 h 0.23502 0.23501 v 0.23501 0.23501 h 0.23501 0.23501 v 0.23501 0.23502 h 0.47003 0.47002 v 0.23501 0.23501 h -0.23501 -0.23501 v 0.47002 0.47003 h -0.23502 -0.23501 v -0.70504 -0.70503 h -0.23501 -0.23501 v 0.70503 0.70504 h 0.23501 0.23501 v 0.23501 0.23501 h 0.70504 0.70503 v 0.23501 0.23502 h -0.23501 -0.23501 v 0.23501 0.23501 h -0.23501 -0.23501 v -0.23501 -0.23501 h -0.23502 -0.23501 v 0.23501 0.23501 z m -1.8801,-1.41007 h 0.23502 v -0.47003 -0.47002 h 0.47002 0.47002 v -0.23501 -0.23501 h -0.23501 -0.23501 v -0.23502 -0.23501 h 0.23501 0.23501 v -0.23501 -0.23501 h -0.23501 -0.23501 v 0.23501 0.23501 h -0.23501 -0.23501 v 0.47003 0.47002 h -0.23502 -0.23501 v -0.47002 -0.47003 h -0.23501 -0.23501 v 0.47003 0.47002 h 0.23501 0.23501 v 0.47002 0.47003 z m 0.94005,0 h 0.23501 v -0.23501 -0.23502 h -0.23501 -0.23501 v 0.23502 0.23501 z m 1.64509,-4.23022 h 0.47002 v -0.70504 -0.70503 h -0.23501 -0.23501 v -0.70504 -0.70503 h -0.23502 -0.23501 v 0.70503 0.70504 h -0.23501 -0.23501 v 0.47002 0.47003 h 0.23501 0.23501 v 0.23501 0.23501 z m -0.23502,-0.47002 h -0.23501 v -0.23502 -0.23501 h 0.23501 0.23502 v 0.23501 0.23502 z m -1.41007,0 h 0.23501 v -0.23502 -0.23501 h -0.23501 -0.23501 v 0.23501 0.23502 z m -2.82014,5.17026 h -0.23501 v -0.23501 -0.23501 h 0.23501 0.23501 v 0.23501 0.23501 z m 7.99041,-0.47002 h -0.23501 v -0.47003 -0.47002 h 0.47002 0.47002 v 0.23501 0.23501 h -0.23501 -0.23501 v 0.23502 0.23501 z m -7.99041,-0.47003 h -0.23501 v -0.23501 -0.23501 h 0.23501 0.23501 v 0.23501 0.23501 z m 0.23501,-3.29017 h -0.47002 v -0.47002 -0.47002 h 0.23501 0.23501 v -0.23502 -0.23501 h -0.23501 -0.23501 v -0.23501 -0.23501 h 0.47002 0.47002 v 0.23501 0.23501 h 0.23502 0.23501 v -0.23501 -0.23501 h 0.23501 0.23501 v 0.47002 0.47003 h -0.47002 -0.47003 v 0.47002 0.47002 z m 8.69545,-1.88009 h -0.23502 v -0.23501 -0.23502 h -0.23501 -0.23501 v -0.23501 -0.23501 h -0.23501 -0.23501 v -0.47002 -0.47003 h 0.23501 0.23501 v -0.23501 -0.23501 h -0.23501 -0.23501 v -0.23501 -0.23502 h 0.23501 0.23501 v 0.23502 0.23501 h 0.23501 0.23501 v -0.23501 -0.23502 h 0.23502 0.23501 v 0.70504 0.70504 h 0.23501 0.23501 v 0.47002 0.47002 h -0.23501 -0.23501 v 0.23502 0.23501 z m 0,-0.47003 h 0.23501 v -0.23501 -0.23501 h -0.23501 -0.23502 v 0.23501 0.23501 z m -7.52039,0 h -1.64508 v -1.64508 -1.64508 h 1.64508 1.64508 v 1.64508 1.64508 z m 0,-0.47002 h 1.17506 v -1.17506 -1.17506 h -1.17506 -1.17506 v 1.17506 1.17506 z m 0,-0.47002 h -0.70504 v -0.70504 -0.70504 h 0.70504 0.70504 v 0.70504 0.70504 z m 10.34053,0.94004 h -1.64508 v -1.64508 -1.64508 h 1.64508 1.64508 v 1.64508 1.64508 z m 0,-0.47002 h 1.17506 v -1.17506 -1.17506 h -1.17506 -1.17506 v 1.17506 1.17506 z m 0,-0.47002 h -0.70504 v -0.70504 -0.70504 h 0.70504 0.70504 v 0.70504 0.70504 z m -4.93525,-1.41008 h -0.47003 v -0.23501 -0.23501 h -0.23501 -0.23501 v -0.23501 -0.23501 h 0.70503 0.70504 v 0.47002 0.47002 z"
       id="path7917" /></g><g
     inkscape:groupmode="layer"
     id="layer2"
     inkscape:label="Layer 2"
     style="display:none"><path
       style="fill:none;stroke:#000000;stroke-width:0.315;stroke-dasharray:none"
       d="m 57.617653,110.44243 c 2.720624,3.88845 6.981439,7.08943 17.125085,7.12267 7.648147,0.0251 12.092087,-12.45328 17.99079,-6.45291 7.317522,7.44364 3.295353,16.69207 0.649005,20.79368 -4.336177,6.7207 -11.505939,10.6006 -14.569123,17.2307 -3.529302,7.63899 0.318948,16.11173 -3.414019,23.41046"
       id="path8103"
       sodipodi:nodetypes="cssssc" /><text
       xml:space="preserve"
       style="font-style:normal;font-variant:normal;font-weight:bold;font-stretch:normal;font-size:2.82223px;font-family:sans-serif;-inkscape-font-specification:'sans-serif Bold';fill:none;stroke:#000000;stroke-width:0.315;stroke-dasharray:none"
       id="text10334"><textPath
         xlink:href="#path8103"
         id="textPath10336"
         style="font-style:normal;font-variant:normal;font-weight:bold;font-stretch:normal;font-family:'DSEG14 Modern';-inkscape-font-specification:'DSEG14 Modern Bold';fill:#da0000;fill-opacity:1;stroke:none;stroke-width:0.315">Herzlichen  Glueckwunsch  und  alles  Gute!</textPath></text></g><g
     inkscape:groupmode="layer"
     id="layer3"
     inkscape:label="Layer 3"
     style="display:none"><text
       xml:space="preserve"
       style="font-style:normal;font-variant:normal;font-weight:bold;font-stretch:normal;font-size:5.46806px;font-family:sans-serif;-inkscape-font-specification:'sans-serif Bold';fill:#c40000;fill-opacity:1;stroke:#000000;stroke-width:0.315;stroke-dasharray:none"
       id="text10334-5"
       x="56.335434"
       y="115.03859"><tspan
         style="font-style:normal;font-variant:normal;font-weight:bold;font-stretch:normal;font-size:5.46806px;font-family:'DSEG14 Modern';-inkscape-font-specification:'DSEG14 Modern Bold';fill:#c40000;fill-opacity:1;stroke:none"
         id="tspan1824">Herzlichen</tspan></text><text
       xml:space="preserve"
       style="font-style:normal;font-variant:normal;font-weight:bold;font-stretch:normal;font-size:5.46806px;font-family:sans-serif;-inkscape-font-specification:'sans-serif Bold';fill:#c40000;fill-opacity:1;stroke:#000000;stroke-width:0.315;stroke-dasharray:none"
       id="text1828"
       x="-124.54621"
       y="137.8792"
       transform="rotate(-66.289839)"><tspan
         style="font-style:normal;font-variant:normal;font-weight:bold;font-stretch:normal;font-size:5.46806px;font-family:'DSEG14 Modern';-inkscape-font-specification:'DSEG14 Modern Bold';fill:#c40000;fill-opacity:1;stroke:none"
         id="tspan1826">Glueckwunsch</tspan></text><text
       xml:space="preserve"
       style="font-style:normal;font-variant:normal;font-weight:bold;font-stretch:normal;font-size:2.82222px;font-family:sans-serif;-inkscape-font-specification:'sans-serif Bold';text-align:center;text-anchor:middle;fill:#c40000;fill-opacity:1;stroke:#000000;stroke-width:0.315;stroke-dasharray:none"
       id="text1832"
       x="134.53447"
       y="167.94505"><tspan
         sodipodi:role="line"
         x="134.53447"
         y="167.94505"
         style="font-style:normal;font-variant:normal;font-weight:bold;font-stretch:normal;font-size:2.82222px;font-family:'DSEG14 Modern';-inkscape-font-specification:'DSEG14 Modern Bold';text-align:center;text-anchor:middle;fill:#c40000;fill-opacity:1;stroke:none"
         id="tspan1848">Benjamin</tspan><tspan
         sodipodi:role="line"
         x="134.53447"
         y="172.15082"
         style="font-style:normal;font-variant:normal;font-weight:bold;font-stretch:normal;font-size:2.82222px;font-family:'DSEG14 Modern';-inkscape-font-specification:'DSEG14 Modern Bold';text-align:center;text-anchor:middle;fill:#c40000;fill-opacity:1;stroke:none"
         id="tspan1852">Koch</tspan></text><text
       xml:space="preserve"
       style="font-style:normal;font-variant:normal;font-weight:bold;font-stretch:normal;font-size:3.88056px;line-height:0.8;font-family:sans-serif;-inkscape-font-specification:'sans-serif Bold';text-align:center;text-anchor:middle;fill:#c40000;fill-opacity:1;stroke:#000000;stroke-width:0.315;stroke-dasharray:none"
       id="text2826"
       x="197.57968"
       y="-10.250641"
       transform="rotate(55.386702)"><tspan
         sodipodi:role="line"
         id="tspan9437"
         x="197.57968"
         y="-10.250641"><tspan
           style="font-style:normal;font-variant:normal;font-weight:bold;font-stretch:normal;font-size:3.88056px;font-family:'DSEG7 Modern';-inkscape-font-specification:'DSEG7 Modern Bold';text-align:center;text-anchor:middle;fill:#c40000;fill-opacity:1;stroke:none"
           id="tspan2824">54−19</tspan></tspan><tspan
         sodipodi:role="line"
         id="tspan9439"
         x="197.57968"
         y="-6.2139492"><tspan
           style="font-style:normal;font-variant:normal;font-weight:bold;font-stretch:normal;font-size:3.88056px;font-family:'DSEG7 Modern';-inkscape-font-specification:'DSEG7 Modern Bold';text-align:center;text-anchor:middle;fill:#c40000;fill-opacity:1;stroke:none"
           id="tspan9441">+7</tspan></tspan></text><text
       xml:space="preserve"
       style="font-style:normal;font-variant:normal;font-weight:bold;font-stretch:normal;font-size:3.88056px;font-family:sans-serif;-inkscape-font-specification:'sans-serif Bold';fill:#c40000;fill-opacity:1;stroke:#000000;stroke-width:0.315;stroke-dasharray:none"
       id="text4329"
       x="-78.245834"
       y="194.8685"
       transform="rotate(-66.921408)"><tspan
         style="font-style:normal;font-variant:normal;font-weight:bold;font-stretch:normal;font-size:3.88056px;font-family:'DSEG7 Modern';-inkscape-font-specification:'DSEG7 Modern Bold';fill:#c40000;fill-opacity:1;stroke:none"
         id="tspan4327">80/2+2</tspan></text><text
       xml:space="preserve"
       style="font-style:normal;font-variant:normal;font-weight:bold;font-stretch:normal;font-size:3.52778px;font-family:sans-serif;-inkscape-font-specification:'sans-serif Bold';fill:#c40000;fill-opacity:1;stroke:#000000;stroke-width:0.315;stroke-dasharray:none"
       id="text5059"
       x="176.80981"
       y="-32.52668"
       transform="rotate(49.336482)"><tspan
         sodipodi:role="line"
         id="tspan6518"
         x="176.80981"
         y="-32.52668"
         style="font-style:normal;font-variant:normal;font-weight:bold;font-stretch:normal;font-size:3.52778px;font-family:'DSEG7 Modern';-inkscape-font-specification:'DSEG7 Modern Bold';fill:#c40000;fill-opacity:1;stroke:none">1954/42</tspan><tspan
         sodipodi:role="line"
         id="tspan6520"
         x="176.80981"
         y="-27.269461"
         style="font-style:normal;font-variant:normal;font-weight:bold;font-stretch:normal;font-size:3.52778px;font-family:'DSEG7 Modern';-inkscape-font-specification:'DSEG7 Modern Bold';fill:#c40000;fill-opacity:1;stroke:none">−190/42</tspan></text><text
       xml:space="preserve"
       style="font-style:normal;font-variant:normal;font-weight:bold;font-stretch:normal;font-size:3.88056px;font-family:sans-serif;-inkscape-font-specification:'sans-serif Bold';fill:#c40000;fill-opacity:1;stroke:#000000;stroke-width:0.315;stroke-dasharray:none"
       id="text5789"
       transform="rotate(2.1225404,113.75669,130.09286)"><textPath
         xlink:href="#path10313"
         id="textPath10364"><tspan
           style="font-style:normal;font-variant:normal;font-weight:bold;font-stretch:normal;font-size:3.88056px;font-family:'DSEG7 Modern';-inkscape-font-specification:'DSEG7 Modern Bold';fill:#c40000;fill-opacity:1;stroke:none"
           id="tspan5787">19−80+103</tspan></textPath></text><text
       xml:space="preserve"
       style="font-style:normal;font-variant:normal;font-weight:bold;font-stretch:normal;font-size:3.88056px;font-family:sans-serif;-inkscape-font-specification:'sans-serif Bold';fill:#c40000;fill-opacity:1;stroke:#000000;stroke-width:0.315;stroke-dasharray:none"
       id="text7978"
       transform="translate(0,-0.52916667)"><textPath
         xlink:href="#path10421"
         id="textPath10423"><tspan
           style="font-style:normal;font-variant:normal;font-weight:bold;font-stretch:normal;font-size:3.88056px;font-family:'DSEG7 Modern';-inkscape-font-specification:'DSEG7 Modern Bold';fill:#c40000;fill-opacity:1;stroke:none"
           id="tspan7976">23×2−4</tspan></textPath></text><text
       xml:space="preserve"
       style="font-style:normal;font-variant:normal;font-weight:bold;font-stretch:normal;font-size:3.88056px;font-family:sans-serif;-inkscape-font-specification:'sans-serif Bold';fill:#c40000;fill-opacity:1;stroke:#000000;stroke-width:0.315;stroke-dasharray:none"
       id="text8708"
       x="-16.665859"
       y="179.21133"
       transform="rotate(-45.352101)"><tspan
         style="font-style:normal;font-variant:normal;font-weight:bold;font-stretch:normal;font-size:3.88056px;font-family:'DSEG7 Modern';-inkscape-font-specification:'DSEG7 Modern Bold';fill:#c40000;fill-opacity:1;stroke:none"
         id="tspan8706">21*2</tspan></text><text
       xml:space="preserve"
       style="font-style:normal;font-variant:normal;font-weight:bold;font-stretch:normal;font-size:3.88056px;font-family:sans-serif;-inkscape-font-specification:'sans-serif Bold';fill:#c40000;fill-opacity:1;stroke:#000000;stroke-width:0.315;stroke-dasharray:none"
       id="text9445"
       x="62.272743"
       y="175.10985"
       transform="rotate(-18.415898)"><tspan
         style="font-style:normal;font-variant:normal;font-weight:bold;font-stretch:normal;font-size:3.88056px;font-family:'DSEG7 Modern';-inkscape-font-specification:'DSEG7 Modern Bold';fill:#c40000;fill-opacity:1;stroke:none"
         id="tspan9443">7*6</tspan></text><path
       style="fill:none;fill-opacity:1;stroke:none;stroke-width:0.315"
       d="m 117.52467,127.02346 c 3.87072,-7.79319 11.69265,-16.02721 21.3481,-15.32753"
       id="path10313"
       sodipodi:nodetypes="cc" /><path
       style="fill:none;fill-opacity:1;stroke:none;stroke-width:0.315"
       d="m 142.69614,164.17029 c 5.5788,-3.88504 9.5017,-8.12718 12.11108,-14.04265"
       id="path10421"
       sodipodi:nodetypes="cc" /></g></svg>
